<?xml version="1.0" encoding="UTF-8" standalone="no"?>
<!DOCTYPE svg PUBLIC "-//W3C//DTD SVG 1.1//EN"
 "http://www.w3.org/Graphics/SVG/1.1/DTD/svg11.dtd">
<!-- Generated by graphviz version 12.2.1 (20241206.2353)
 -->
<!-- Title: IPCC_CCP7_Structure Pages: 1 -->
<svg width="538pt" height="260pt"
 viewBox="0.00 0.00 538.07 260.00" xmlns="http://www.w3.org/2000/svg" xmlns:xlink="http://www.w3.org/1999/xlink">
<g id="graph0" class="graph" transform="scale(1 1) rotate(0) translate(4 256)">
<title>IPCC_CCP7_Structure</title>
<polygon fill="white" stroke="none" points="-4,4 -4,-256 534.07,-256 534.07,4 -4,4"/>
<!-- CCP7 -->
<g id="node1" class="node">
<title>CCP7</title>
<g id="a_node1"><a xlink:href="https://www.ipcc.ch/report/ar6/wg2/chapter/ccp7/" xlink:title="Cross&#45;Chapter Paper 7: Tropical Forests">
<ellipse fill="lightgreen" stroke="lightgreen" cx="159.85" cy="-126" rx="159.85" ry="18"/>
<text text-anchor="middle" x="159.85" y="-120.95" font-family="Times New Roman,serif" font-size="14.00">Cross&#45;Chapter Paper 7: Tropical Forests</text>
</a>
</g>
</g>
<!-- ExecSummary -->
<g id="node2" class="node">
<title>ExecSummary</title>
<g id="a_node2"><a xlink:href="https://www.ipcc.ch/report/ar6/wg2/chapter/ccp7/#exec-summary" xlink:title="Executive Summary">
<ellipse fill="lightgreen" stroke="lightgreen" cx="442.89" cy="-234" rx="87.18" ry="18"/>
<text text-anchor="middle" x="442.89" y="-228.95" font-family="Times New Roman,serif" font-size="14.00">Executive Summary</text>
</a>
</g>
</g>
<!-- CCP7&#45;&gt;ExecSummary -->
<g id="edge1" class="edge">
<title>CCP7&#45;&gt;ExecSummary</title>
<path fill="none" stroke="black" d="M200.74,-143.83C239.84,-161 301.31,-187.22 355.71,-207 363.7,-209.91 372.17,-212.79 380.57,-215.54"/>
<polygon fill="black" stroke="black" points="379.47,-218.86 390.06,-218.59 381.61,-212.2 379.47,-218.86"/>
</g>
<!-- Authors -->
<g id="node3" class="node">
<title>Authors</title>
<g id="a_node3"><a xlink:href="https://www.ipcc.ch/report/ar6/wg2/chapter/ccp7/#authors" xlink:title="Authors">
<ellipse fill="lightgreen" stroke="lightgreen" cx="442.89" cy="-180" rx="40.6" ry="18"/>
<text text-anchor="middle" x="442.89" y="-174.95" font-family="Times New Roman,serif" font-size="14.00">Authors</text>
</a>
</g>
</g>
<!-- CCP7&#45;&gt;Authors -->
<g id="edge2" class="edge">
<title>CCP7&#45;&gt;Authors</title>
<path fill="none" stroke="black" d="M242.9,-141.76C291.91,-151.18 352.49,-162.82 393.84,-170.77"/>
<polygon fill="black" stroke="black" points="393,-174.17 403.48,-172.62 394.32,-167.3 393,-174.17"/>
</g>
<!-- Figures -->
<g id="node4" class="node">
<title>Figures</title>
<g id="a_node4"><a xlink:href="https://www.ipcc.ch/report/ar6/wg2/chapter/ccp7/#figures" xlink:title="Figures">
<ellipse fill="lightgreen" stroke="lightgreen" cx="442.89" cy="-126" rx="38.56" ry="18"/>
<text text-anchor="middle" x="442.89" y="-120.95" font-family="Times New Roman,serif" font-size="14.00">Figures</text>
</a>
</g>
</g>
<!-- CCP7&#45;&gt;Figures -->
<g id="edge3" class="edge">
<title>CCP7&#45;&gt;Figures</title>
<path fill="none" stroke="black" d="M319.85,-126C346.24,-126 371.74,-126 392.55,-126"/>
<polygon fill="black" stroke="black" points="392.4,-129.5 402.4,-126 392.4,-122.5 392.4,-129.5"/>
</g>
<!-- Citations -->
<g id="node5" class="node">
<title>Citations</title>
<g id="a_node5"><a xlink:href="https://www.ipcc.ch/report/ar6/wg2/chapter/ccp7/#how-to-cite" xlink:title="How to Cite">
<ellipse fill="lightgreen" stroke="lightgreen" cx="442.89" cy="-72" rx="56.47" ry="18"/>
<text text-anchor="middle" x="442.89" y="-66.95" font-family="Times New Roman,serif" font-size="14.00">How to Cite</text>
</a>
</g>
</g>
<!-- CCP7&#45;&gt;Citations -->
<g id="edge4" class="edge">
<title>CCP7&#45;&gt;Citations</title>
<path fill="none" stroke="black" d="M242.9,-110.24C287.62,-101.64 341.96,-91.2 382.55,-83.4"/>
<polygon fill="black" stroke="black" points="382.97,-86.89 392.13,-81.56 381.65,-80.01 382.97,-86.89"/>
</g>
<!-- FullReport -->
<g id="node6" class="node">
<title>FullReport</title>
<g id="a_node6"><a xlink:href="https://www.ipcc.ch/report/ar6/wg2/chapter/ccp7/full-report/" xlink:title="Full Report">
<ellipse fill="lightgreen" stroke="lightgreen" cx="442.89" cy="-18" rx="53.4" ry="18"/>
<text text-anchor="middle" x="442.89" y="-12.95" font-family="Times New Roman,serif" font-size="14.00">Full Report</text>
</a>
</g>
</g>
<!-- CCP7&#45;&gt;FullReport -->
<g id="edge5" class="edge">
<title>CCP7&#45;&gt;FullReport</title>
<path fill="none" stroke="black" d="M200.74,-108.17C239.84,-91 301.31,-64.78 355.71,-45 366.99,-40.9 379.22,-36.84 390.84,-33.16"/>
<polygon fill="black" stroke="black" points="391.79,-36.53 400.29,-30.21 389.7,-29.85 391.79,-36.53"/>
</g>
</g>
</svg>
